<svg width="current" height="current" viewBox="0 0 32 32" fill="none" xmlns="http://www.w3.org/2000/svg">
<path d="M15.9616 31.9232C24.777 31.9232 31.9232 24.777 31.9232 15.9616C31.9232 7.14626 24.777 0 15.9616 0C7.14626 0 0 7.14626 0 15.9616C0 24.777 7.14626 31.9232 15.9616 31.9232Z" fill="#1652F0"/>
<path d="M17.4331 20.9496C18.2499 20.9496 19.0667 20.7688 19.7899 20.4976L21.33 22.8544C19.9708 23.5808 18.518 23.9424 16.9779 23.9424C12.3547 23.9424 8.90674 20.8592 8.90674 15.9616C8.99715 11.064 12.5355 7.98082 17.0684 7.98082C18.7019 7.98082 19.8803 8.34245 21.1492 8.97842L19.6995 11.4257C18.9732 11.1544 18.1595 10.9736 17.3427 10.9736C14.6211 10.9736 12.4451 12.6976 12.4451 15.9616C12.4451 19.0448 14.5307 20.9496 17.4331 20.9496Z" fill="white"/>
</svg>
